<?xml version="1.0" encoding="utf-8"?>
<!-- Generator: Adobe Illustrator 16.0.0, SVG Export Plug-In . SVG Version: 6.00 Build 0)  -->
<!DOCTYPE svg PUBLIC "-//W3C//DTD SVG 1.1//EN" "http://www.w3.org/Graphics/SVG/1.1/DTD/svg11.dtd">
<svg version="1.1" id="Layer_1" xmlns="http://www.w3.org/2000/svg" xmlns:xlink="http://www.w3.org/1999/xlink" x="0px" y="0px"
	 width="158.167px" height="20.891px" viewBox="9.167 6.5 158.167 20.891" enable-background="new 9.167 6.5 158.167 20.891"
	 xml:space="preserve">
<g>
	<path d="M9.167,9.484h2.984v14.921H9.167V9.484z M12.151,6.5h8.953v2.984h-8.953V6.5z M12.151,24.406h8.953v2.984h-8.953V24.406z
		 M21.104,9.484h2.984v2.984h-2.984V9.484z M21.104,21.421h2.984v2.984h-2.984V21.421z"/>
	<path d="M33.041,6.5h11.938v2.984h-8.953v8.953h8.953v5.969h-2.984v-2.984h-5.969v5.969h-2.984L33.041,6.5L33.041,6.5z
		 M44.979,9.484h2.984v8.953h-2.984V9.484z M44.979,24.406h2.984v2.984h-2.984V24.406z"/>
	<path d="M56.916,9.484H59.9v8.953h8.953V9.484h2.984V27.39h-2.984v-5.969H59.9v5.969h-2.984V9.484z M59.9,6.5h8.953v2.984H59.9V6.5
		z"/>
	<path d="M80.79,6.5h14.922v2.984H83.774v5.968h5.969v2.984h-5.969v8.953H80.79V6.5z"/>
	<path d="M104.664,6.5h14.921v2.984h-5.969V27.39h-2.984V9.484h-5.969L104.664,6.5L104.664,6.5z"/>
	<path fill="#54B347" d="M128.538,6.5h11.938v2.984h-8.953v5.968h8.953v2.984h-8.953v5.969h8.953v2.984h-11.938V6.5z M140.476,9.484
		h2.984v5.968h-2.984V9.484z M140.476,18.437h2.984v5.969h-2.984V18.437z"/>
	<path fill="#54B347" d="M152.413,6.5h11.937v2.984h-8.953v5.968h8.953v2.984h-8.953v5.969h8.953v2.984h-11.937V6.5z M164.35,9.484
		h2.984v5.968h-2.984V9.484z M164.35,18.437h2.984v5.969h-2.984V18.437z"/>
</g>
</svg>
